<svg width="17" height="17" viewBox="0 0 17 17" fill="none" xmlns="http://www.w3.org/2000/svg">
<path d="M14.9526 2.08049L12.9273 2.08049C12.0136 0.873615 10.5798 0.0804901 8.95264 0.0804901C7.32545 0.0804901 5.8917 0.873615 4.97795 2.08049L2.95264 2.08049C1.84982 2.08049 0.952637 2.97768 0.952637 4.08049L0.952637 14.0805C0.952637 15.1833 1.84982 16.0805 2.95264 16.0805H14.9526C16.0554 16.0805 16.9526 15.1833 16.9526 14.0805V4.08049C16.9526 2.97768 16.0554 2.08049 14.9526 2.08049ZM8.95264 1.08049C11.1617 1.08049 12.9526 2.87143 12.9526 5.08049C12.9526 7.28955 11.1617 9.08049 8.95264 9.08049C6.74357 9.08049 4.95264 7.28955 4.95264 5.08049C4.95264 2.87143 6.74357 1.08049 8.95264 1.08049ZM15.9526 14.0805C15.9526 14.6327 15.5048 15.0805 14.9526 15.0805L2.95264 15.0805C2.40045 15.0805 1.95264 14.6327 1.95264 14.0805L1.95264 4.08049C1.95264 3.5283 2.40045 3.08049 2.95264 3.08049L4.37639 3.08049C4.10701 3.69393 3.95264 4.36861 3.95264 5.08049C3.95264 7.83736 6.19576 10.0805 8.95264 10.0805C11.7095 10.0805 13.9526 7.83736 13.9526 5.08049C13.9526 4.36861 13.7983 3.69393 13.5289 3.08049H14.9526C15.5048 3.08049 15.9526 3.5283 15.9526 4.08049L15.9526 14.0805ZM8.95264 8.08049C9.77982 8.08049 10.4526 7.40768 10.4526 6.58049C10.4526 6.14549 10.2636 5.75674 9.96701 5.48268L10.912 3.27737C11.0208 3.02393 10.9033 2.72987 10.6492 2.62112C10.3967 2.51236 10.1017 2.62955 9.99295 2.88393L9.04732 5.09018C7.9392 5.01799 7.45264 5.9758 7.45264 6.58049C7.45264 7.40768 8.12545 8.08049 8.95264 8.08049ZM8.95264 6.08049C9.22889 6.08049 9.45264 6.30424 9.45264 6.58049C9.45264 6.85674 9.22889 7.08049 8.95264 7.08049C8.67639 7.08049 8.45264 6.85674 8.45264 6.58049C8.45264 6.30424 8.67639 6.08049 8.95264 6.08049Z" fill="#212121"/>
</svg>
