<svg width="9" height="9" viewBox="0 0 9 9" fill="none" xmlns="http://www.w3.org/2000/svg">
<path d="M8.89756 7.40677L7.00078 5.50999C6.96484 5.47405 6.91797 5.4553 6.86797 5.4553H6.66173C7.1539 4.88502 7.45232 4.14287 7.45232 3.33041C7.45232 1.53518 5.9977 0.0805664 4.20248 0.0805664C2.40725 0.0805664 0.952637 1.53518 0.952637 3.33041C0.952637 5.12563 2.40725 6.58025 4.20248 6.58025C5.01494 6.58025 5.75709 6.28183 6.32737 5.78966V5.9959C6.32737 6.0459 6.34769 6.09277 6.38206 6.12871L8.27884 8.02549C8.35227 8.09892 8.47102 8.09892 8.54445 8.02549L8.89756 7.67238C8.97099 7.59895 8.97099 7.4802 8.89756 7.40677ZM4.20248 5.83029C2.8213 5.83029 1.7026 4.71159 1.7026 3.33041C1.7026 1.94922 2.8213 0.83053 4.20248 0.83053C5.58366 0.83053 6.70236 1.94922 6.70236 3.33041C6.70236 4.71159 5.58366 5.83029 4.20248 5.83029Z" fill="#666666"/>
</svg>
