<svg width="9" height="17" viewBox="0 0 9 17" fill="none" xmlns="http://www.w3.org/2000/svg">
<path d="M7.95264 0.0804901L1.95264 0.0804901C1.40045 0.0804901 0.952637 0.528303 0.952637 1.08049L0.952637 15.0805C0.952637 15.6327 1.40045 16.0805 1.95264 16.0805H7.95264C8.50482 16.0805 8.95264 15.6327 8.95264 15.0805L8.95264 1.08049C8.95264 0.528303 8.50482 0.0804901 7.95264 0.0804901ZM1.95264 15.0805L1.95264 1.08049L7.95264 1.08049V3.08049L6.20264 3.08049C6.06451 3.08049 5.95264 3.19236 5.95264 3.33049V3.83049C5.95264 3.96861 6.06451 4.08049 6.20264 4.08049L7.95264 4.08049L7.95264 6.08049H6.20264C6.06451 6.08049 5.95264 6.19236 5.95264 6.33049V6.83049C5.95264 6.96861 6.06451 7.08049 6.20264 7.08049H7.95264V9.08049H6.20264C6.06451 9.08049 5.95264 9.19236 5.95264 9.33049V9.83049C5.95264 9.96861 6.06451 10.0805 6.20264 10.0805H7.95264V12.0805H6.20264C6.06451 12.0805 5.95264 12.1924 5.95264 12.3305V12.8305C5.95264 12.9686 6.06451 13.0805 6.20264 13.0805H7.95264V15.0805H1.95264Z" fill="#212121"/>
</svg>
